<?xml version="1.0" standalone="no"?><svg xmlns="http://www.w3.org/2000/svg" viewBox="0 0 1440 320"><path fill="#5000ca" fill-opacity="1" d="M0,288L40,282.7C80,277,160,267,240,224C320,181,400,107,480,112C560,117,640,203,720,240C800,277,880,267,960,234.7C1040,203,1120,149,1200,122.7C1280,96,1360,96,1400,96L1440,96L1440,320L1400,320C1360,320,1280,320,1200,320C1120,320,1040,320,960,320C880,320,800,320,720,320C640,320,560,320,480,320C400,320,320,320,240,320C160,320,80,320,40,320L0,320Z"></path></svg>